# xmcd
#
# Track frame offsets: 
#        150
#        11709
#        24031
#        40424
#        62672
#        73292
#        87789
#        102694
#        117821
#        132005
#        143958
#        156599
#        166198
#        186305
#
# Disc length: 2683 seconds
#
# Revision: 4
# Processed by: cddbd v1.5.2PL0 Copyright (c) Steve Scherf et al.
# Submitted via: ExactAudioCopy v1.3
#
DISCID=c20a790e
DTITLE=Creedence Clearwater Revival - Green River - 40th Anniversary E
DTITLE=dition [2008]
DYEAR=1969
DGENRE=Rock
TTITLE0=Green River
TTITLE1=Commotion
TTITLE2=Tombstone Shadow
TTITLE3=Wrote A Song For Everyone
TTITLE4=Bad Moon Rising
TTITLE5=Lodi
TTITLE6=Cross-Tie Walker
TTITLE7=Sinister Purpose
TTITLE8=The Night Time Is The Right Time
TTITLE9=Broken Spoke Shuffle  
TTITLE10=Glory Be  
TTITLE11=Bad Moon Rising  (Live In Berlin, Germany, 9-16-1971)
TTITLE12=Green River - Susie Q  (Live In Stockholm, Sweden, 9-21-1971)
TTITLE13=Lodi  (Live In Hamburg, Germany, 9-17-1971)
EXTD=
EXTT0=
EXTT1=
EXTT2=
EXTT3=
EXTT4=
EXTT5=
EXTT6=
EXTT7=
EXTT8=
EXTT9=
EXTT10=
EXTT11=
EXTT12=
EXTT13=
PLAYORDER=
